<svg xmlns="http://www.w3.org/2000/svg" width="24" height="32" viewBox="0 0 24 32">
  <defs>
    <linearGradient id="pole" x1="0" x2="1"><stop stop-color="#392719"/><stop offset=".46" stop-color="#9a7146"/><stop offset="1" stop-color="#2b2119"/></linearGradient>
    <linearGradient id="cloth" x1="0" y1="0" x2="1" y2="1"><stop stop-color="#8b2f2b"/><stop offset=".48" stop-color="#b44839"/><stop offset="1" stop-color="#612520"/></linearGradient>
    <linearGradient id="fold" x1="0" y1="0" x2="0" y2="1"><stop stop-color="#e18062" stop-opacity=".65"/><stop offset=".5" stop-color="#e18062" stop-opacity="0"/><stop offset="1" stop-color="#321918" stop-opacity=".55"/></linearGradient>
  </defs>
  <rect x="3.25" y="1.5" width="2.35" height="29" rx="1.1" fill="url(#pole)" stroke="#171613" stroke-width=".55"/>
  <circle cx="4.42" cy="2.15" r="1.05" fill="#a9844f" stroke="#221b13" stroke-width=".5"/>
  <path d="M5.4 4.7C10 3.2 14.1 4.1 21.5 5.2l-2.7 5.55 2.55 6.1c-5.85-1.55-10.2-2.3-15.95-.15Z" fill="url(#cloth)" stroke="#251817" stroke-width=".8" stroke-linejoin="round"/>
  <path d="M6.25 6.15c4.65-.9 8.65-.15 13.35.55M6.2 11.15c4.65-1.15 8.6-.05 13.05.65" fill="none" stroke="url(#fold)" stroke-width="1.05" stroke-linecap="round"/>
  <path d="M18.8 10.75l2.55 6.1-2.6-.7" fill="none" stroke="#d17a5a" stroke-opacity=".38" stroke-width=".45"/>
</svg>
