<svg xmlns="http://www.w3.org/2000/svg" width="48" height="48" viewBox="0 0 48 48">
  <defs>
    <linearGradient id="wood" x1="0" y1="0" x2="0" y2="1"><stop stop-color="#b07a3e"/><stop offset=".45" stop-color="#87552d"/><stop offset="1" stop-color="#55331f"/></linearGradient>
    <linearGradient id="iron" x1="0" y1="0" x2="1" y2="1"><stop stop-color="#596066"/><stop offset=".45" stop-color="#252b2f"/><stop offset="1" stop-color="#0e1215"/></linearGradient>
  </defs>
  <path d="M6 18Q7 9 14 7h20q7 2 8 11v20q-2 4-6 5H12q-5-1-6-5z" fill="#261a13"/>
  <path d="M8 19Q9 11 15 9h18q6 2 7 10v7H8z" fill="url(#wood)"/>
  <rect x="8" y="26" width="32" height="14" rx="2" fill="url(#wood)"/>
  <path d="M10 15h28M9 22h30M10 31h28M10 36h28" fill="none" stroke="#d49b55" stroke-opacity=".28"/>
  <path d="M13 9v31M35 9v31" stroke="url(#iron)" stroke-width="4"/><rect x="21" y="23" width="6" height="10" rx="1.5" fill="#24272a"/><rect x="22" y="24" width="4" height="7" rx="1" fill="#a47b35"/><circle cx="24" cy="27" r="1" fill="#e0bb67"/>
  <path d="M9 18q15 4 30 0" fill="none" stroke="#e7b66f" stroke-opacity=".35"/><circle cx="13" cy="12" r="1" fill="#c6a15f"/><circle cx="35" cy="12" r="1" fill="#c6a15f"/>
</svg>
